<svg height="284pt" preserveAspectRatio="xMidYMid meet" viewBox="0 0 1266 284" width="1266pt" xmlns="http://www.w3.org/2000/svg"><g transform="matrix(.1 0 0 -.1 0 284)"><path d="m700 2825c-343-68-584-336-597-665-9-194 43-343 164-471s265-206 583-314c222-76 313-116 409-179 132-88 208-193 232-322 55-297-240-555-636-557-206 0-378 75-590 260l-80 70-93-103c-50-56-92-107-92-112 0-14 110-114 184-167 211-150 506-237 751-221 325 22 576 150 716 364 89 135 125 277 116 452-9 182-63 313-184 441-127 134-296 226-604 329-455 152-599 275-599 511 0 176 125 324 332 394 71 24 99 28 193 29 97 0 120-4 197-31 99-35 205-98 310-184l73-60 58 63c32 35 75 83 95 107l37 44-40 35c-180 158-357 252-543 288-91 17-303 17-392-1z"/><path d="m4188 2801c-96-31-158-116-158-216 1-134 90-225 222-225 95 1 180 60 208 145 20 60 9 156-23 203-49 75-168 119-249 93z"/><path d="m2180 1425v-1335h135 135v463l1 462 460-463 459-462 191 2 191 3-460 465-460 465 421 423 422 422h-195-195l-417-417-418-418v863 862h-135-135z"/><path d="m5000 1425v-1335h140 140v1335 1335h-140-140z"/><path d="m5890 1425v-1335h135 135v1335 1335h-135-135z"/><path d="m6770 1466v-1295l54-25c175-83 578-129 811-93 332 52 591 238 726 522 67 141 80 196 86 366 4 114 2 164-12 230-78 387-387 672-795 734-182 28-341 16-502-39l-98-33v463 464h-135-135zm953 137c115-40 186-84 266-163 120-119 180-255 188-425 10-195-51-358-180-488-84-84-170-137-282-174-67-21-104-27-226-31-168-5-241 5-365 49l-84 31 2 550 3 551 60 33c141 79 247 105 410 100 102-3 133-7 208-33z"/><path d="m9555 1946c-197-38-371-130-511-270-206-206-308-489-283-786 32-403 315-746 710-861 106-30 334-38 450-14 292 59 542 252 678 522 22 45 53 122 68 170 25 82 27 100 27 268 0 213-14 279-93 440-128 260-343 435-636 517-92 25-312 33-410 14zm350-281c239-60 443-267 505-511 61-239-9-492-185-670-197-199-463-261-726-170-100 35-172 80-254 161-83 81-142 176-182 290-24 72-27 94-27 215-1 126 2 141 31 223 42 118 85 188 168 272 107 108 239 178 387 205 68 12 206 5 283-15z"/><path d="m4120 980v-890h140 140v890 890h-140-140z"/><path d="m10848 1833c17-21 179-216 359-433l329-395-306-369c-168-202-338-408-378-457l-73-89h178 179l269 326c149 179 279 337 290 350l20 25 290-350 290-350h178c140-1 177 2 171 12-5 6-174 212-377 455-202 244-366 449-364 455 3 7 161 200 351 429 190 230 346 420 346 423s-78 5-174 5h-174l-263-317c-144-175-265-321-268-325s-127 139-276 318l-270 324h-178-179z"/></g></svg>